HIERARCHY
ROOT SpineBase
{
  OFFSET 0.000000 0.000000 0.000000
  CHANNELS 6 Xposition Yposition Zposition Zrotation Xrotation Yrotation
  JOINT SpineMid
  {
    OFFSET -0.000000 31.738398 0.000000
    CHANNELS 3 Zrotation Xrotation Yrotation
    JOINT SpineShoulder
    {
      OFFSET 0.287055 23.575992 -0.833703
      CHANNELS 3 Zrotation Xrotation Yrotation
      JOINT Neck
      {
        OFFSET 0.204643 7.798840 -0.612078
        CHANNELS 3 Zrotation Xrotation Yrotation
        JOINT Head
        {
          OFFSET 2.372854 12.831813 3.646102
          CHANNELS 3 Zrotation Xrotation Yrotation
          End Site
          {
            OFFSET 0 0 0
          }
        }
      }
      JOINT ShoulderLeft
      {
        OFFSET -7.396954 -3.012519 -13.270684
        CHANNELS 3 Zrotation Xrotation Yrotation
        JOINT ElbowLeft
        {
          OFFSET -4.871387 -26.020101 -9.176272
          CHANNELS 3 Zrotation Xrotation Yrotation
          JOINT WristLeft
          {
            OFFSET 3.358620 -23.570917 -5.066002
            CHANNELS 3 Zrotation Xrotation Yrotation
            JOINT HandLeft
            {
              OFFSET 1.508330 -8.240882 2.664825
              CHANNELS 3 Zrotation Xrotation Yrotation
              JOINT HandTipLeft
              {
                OFFSET 0.834932 -7.572396 -0.277872
                CHANNELS 3 Zrotation Xrotation Yrotation
                End Site
                {
                  OFFSET 0 0 0
                }
              }
              JOINT ThumbLeft
              {
                OFFSET 2.700499 0.953586 6.275904
                CHANNELS 3 Zrotation Xrotation Yrotation
                End Site
                {
                  OFFSET 0 0 0
                }
              }
            }
          }
        }
      }
      JOINT ShoulderRight
      {
        OFFSET 9.103325 -4.882938 13.799319
        CHANNELS 3 Zrotation Xrotation Yrotation
        JOINT ElbowRight
        {
          OFFSET -0.071356 -29.875358 11.583717
          CHANNELS 3 Zrotation Xrotation Yrotation
          JOINT WristRight
          {
            OFFSET 3.628278 -24.367683 1.638013
            CHANNELS 3 Zrotation Xrotation Yrotation
            JOINT HandRight
            {
              OFFSET 3.182205 -4.285862 0.787944
              CHANNELS 3 Zrotation Xrotation Yrotation
              JOINT HandTipRight
              {
                OFFSET -0.664069 -5.577022 -1.391853
                CHANNELS 3 Zrotation Xrotation Yrotation
                End Site
                {
                  OFFSET 0 0 0
                }
              }
              JOINT ThumbRight
              {
                OFFSET -3.027732 -1.820086 -2.671377
                CHANNELS 3 Zrotation Xrotation Yrotation
                End Site
                {
                  OFFSET 0 0 0
                }
              }
            }
          }
        }
      }
    }
  }
  JOINT HipLeft
  {
    OFFSET -3.102259 2.077479 -9.164541
    CHANNELS 3 Zrotation Xrotation Yrotation
    JOINT KneeLeft
    {
      OFFSET -9.216029 -35.963166 -1.147655
      CHANNELS 3 Zrotation Xrotation Yrotation
      JOINT AnkleLeft
      {
        OFFSET -9.020495 -36.522779 7.031299
        CHANNELS 3 Zrotation Xrotation Yrotation
        JOINT FootLeft
        {
          OFFSET 2.787810 -6.125543 -3.800016
          CHANNELS 3 Zrotation Xrotation Yrotation
          End Site
          {
            OFFSET 0 0 0
          }
        }
      }
    }
  }
  JOINT HipRight
  {
    OFFSET 5.407248 -0.125993 2.443487
    CHANNELS 3 Zrotation Xrotation Yrotation
    JOINT KneeRight
    {
      OFFSET -0.568676 -38.677153 2.096985
      CHANNELS 3 Zrotation Xrotation Yrotation
      JOINT AnkleRight
      {
        OFFSET -0.843868 -34.012948 3.889521
        CHANNELS 3 Zrotation Xrotation Yrotation
        JOINT FootRight
        {
          OFFSET 5.981821 -4.685190 -4.554394
          CHANNELS 3 Zrotation Xrotation Yrotation
          End Site
          {
            OFFSET 0 0 0
          }
        }
      }
    }
  }
}
MOTION
Frames: 10
Frame Time: 0.033333
-100.242134 79.898114 292.181438 0.000000 0.000000 -53.755939 -0.000000 -0.000000 53.755939 -0.000000 0.000000 0.000000 -0.000000 0.000000 0.000000 0.000000 0.000000 0.000000 -0.000000 0.000000 0.000000 -0.000000 0.000000 0.000000 -0.000000 0.000000 0.000000 -0.000000 0.000000 0.000000 0.000000 0.000000 0.000000 0.000000 0.000000 0.000000 -0.000000 0.000000 0.000000 -0.000000 0.000000 0.000000 -0.000000 0.000000 0.000000 -0.000000 0.000000 0.000000 0.000000 0.000000 0.000000 0.000000 0.000000 0.000000 -0.000000 -0.000000 53.755939 -0.000000 0.000000 0.000000 -0.000000 0.000000 0.000000 0.000000 0.000000 0.000000 -0.000000 -0.000000 53.755939 -0.000000 0.000000 0.000000 -0.000000 0.000000 0.000000 0.000000 0.000000 0.000000
-100.227891 79.896458 292.123537 0.074836 0.021799 -53.533228 -0.026949 -0.073140 53.533197 -0.000000 0.000000 0.000000 -0.000000 0.000000 0.000000 0.000000 0.000000 0.000000 -0.000000 0.000000 0.000000 -0.000000 0.000000 0.000000 -1.308196 -1.622360 -0.736685 0.387982 1.364184 0.727429 0.000000 0.000000 0.000000 0.000000 0.000000 0.000000 -0.000000 0.000000 0.000000 -1.317430 -0.185245 -0.118465 -6.613383 -1.356066 -2.699906 6.314386 1.180414 3.113006 0.000000 0.000000 0.000000 0.000000 0.000000 0.000000 -0.026949 -0.073140 53.533197 -0.000000 0.000000 0.000000 -0.498187 -0.822417 -0.069264 0.000000 0.000000 0.000000 -0.026949 -0.073140 53.533197 -0.000000 0.000000 0.000000 3.446841 3.994912 1.520634 0.000000 0.000000 0.000000
-100.223744 79.892068 292.076589 0.136703 0.038939 -53.356418 -0.050346 -0.132925 53.356313 -0.000000 0.000000 0.000000 -0.000000 0.000000 0.000000 0.000000 0.000000 0.000000 -0.000000 0.000000 0.000000 -0.748070 -1.050808 0.004200 -1.796423 -2.022538 -1.418714 0.813024 2.608827 1.402382 0.000000 0.000000 0.000000 0.000000 0.000000 0.000000 -0.000000 0.000000 0.000000 -2.158094 -0.333685 -0.201581 -11.393825 -2.117481 -4.731832 10.861214 2.316889 5.178505 0.000000 0.000000 0.000000 0.000000 0.000000 0.000000 -1.389939 0.116986 53.062060 1.059311 -2.140370 0.627755 -1.336262 -0.514713 -0.416659 0.000000 0.000000 0.000000 -0.050346 -0.132925 53.356313 -0.000000 0.000000 0.000000 6.197920 7.342167 2.613921 0.000000 0.000000 0.000000
-100.229694 79.884946 292.040593 0.185598 0.051421 -53.225920 -0.069922 -0.179448 53.225728 -0.000000 0.000000 0.000000 -0.000000 0.000000 0.000000 0.000000 0.000000 0.000000 -0.245015 -0.843828 0.243118 -0.814631 -0.610866 -0.225105 -2.644613 -2.887908 -2.059854 1.247704 3.718047 2.017513 0.000000 0.000000 0.000000 0.000000 0.000000 0.000000 -0.000000 0.000000 0.000000 -2.527011 -0.447936 -0.247218 -14.668153 -2.547309 -6.136517 13.962780 3.372825 6.419323 0.000000 0.000000 0.000000 0.000000 0.000000 0.000000 -1.969774 0.203404 52.804877 1.487240 -3.031975 0.901548 -1.802324 -0.569494 -0.558551 0.000000 0.000000 0.000000 -0.069922 -0.179448 53.225728 -0.000000 0.000000 0.000000 8.327962 10.031647 3.392778 0.000000 0.000000 0.000000
-100.245741 79.875091 292.015550 0.221522 0.059245 -53.142100 -0.085474 -0.212782 53.141827 -0.000000 0.000000 0.000000 -0.000000 0.000000 0.000000 0.000000 0.000000 0.000000 -0.293117 -1.106811 0.308662 -1.033054 -0.673981 -0.279500 -3.449045 -3.644159 -2.647137 1.671625 4.673770 2.567114 0.000000 0.000000 0.000000 0.000000 0.000000 0.000000 -0.000000 0.000000 0.000000 -2.425297 -0.529456 -0.253818 -16.698366 -2.805317 -6.985861 15.865747 4.354534 6.989369 0.000000 0.000000 0.000000 0.000000 0.000000 0.000000 -2.465466 0.303974 52.610122 1.843672 -3.803015 1.144476 -2.140180 -0.498431 -0.659612 0.000000 0.000000 0.000000 0.858678 -0.240972 53.186392 -0.543234 0.772733 -0.037163 9.907470 12.094278 3.946755 0.000000 0.000000 0.000000
-100.271885 79.862504 292.001460 0.244479 0.062412 -53.105280 -0.096859 -0.232988 53.104950 -0.000000 0.000000 0.000000 -0.000000 0.000000 0.000000 0.000000 0.000000 0.000000 -0.323747 -1.356556 0.365654 -1.224870 -0.670920 -0.321954 -4.200021 -4.276269 -3.171871 2.068261 5.453225 3.045517 0.000000 0.000000 0.000000 0.000000 0.000000 0.000000 -0.000000 0.000000 0.000000 -1.849397 -0.578402 -0.220242 -17.580691 -2.974116 -7.314165 16.655966 5.257006 6.961623 0.000000 0.000000 0.000000 0.000000 0.000000 0.000000 -2.872749 0.415791 52.479249 2.126268 -4.452482 1.353761 -2.353239 -0.305254 -0.722147 0.000000 0.000000 0.000000 0.977235 -0.243002 53.156641 -1.359809 1.275502 -0.121861 11.679183 13.192907 4.517513 0.000000 0.000000 0.000000
-100.317728 79.839423 292.020691 0.244180 0.040316 -53.165562 -0.114120 -0.219604 53.165258 -0.000000 0.000000 0.000000 -0.000000 0.000000 0.000000 0.000000 0.000000 0.000000 -0.346245 -1.628110 0.423899 -1.498012 -0.587524 -0.338355 -4.704978 -4.413960 -3.547958 2.380939 5.330173 3.316885 0.000000 0.000000 0.000000 0.000000 0.000000 0.000000 -0.000000 0.000000 0.000000 -1.401885 -0.908656 -0.240967 -18.434619 -3.494156 -8.155685 17.621887 6.709258 7.316547 0.000000 0.000000 0.000000 0.000000 0.000000 0.000000 -3.156150 0.528074 52.476055 2.364378 -4.878467 1.509717 -2.562254 0.102653 -0.623162 0.000000 0.000000 0.000000 1.085880 -0.179185 53.223939 -1.501753 1.406196 -0.130558 10.237520 11.040973 3.896572 0.000000 0.000000 0.000000
-100.364925 79.827644 292.020632 0.240586 0.033068 -53.250147 -0.117452 -0.212556 53.249860 -0.000000 0.000000 0.000000 -0.000000 0.000000 0.000000 0.000000 0.000000 0.000000 -0.328994 -1.865162 0.462291 -1.710871 -0.426812 -0.337488 -5.279234 -4.709656 -3.930104 2.722389 5.338131 3.588378 0.000000 0.000000 0.000000 0.000000 0.000000 0.000000 0.117209 1.362053 0.040989 -0.223101 -2.880847 -0.280641 -15.397931 -2.457127 -6.285777 12.623773 6.577016 6.325757 0.000000 0.000000 0.000000 0.000000 0.000000 0.000000 -3.329997 0.650243 52.511989 2.466797 -5.231661 1.630548 -2.606686 0.439435 -0.606768 0.000000 0.000000 0.000000 1.154307 -0.132323 53.312685 -1.516109 1.446020 -0.128333 10.598654 11.734616 4.177561 0.000000 0.000000 0.000000
-100.429622 79.814116 292.008909 0.220496 0.049995 -53.316039 -0.091631 -0.206692 53.315777 -0.000000 0.000000 0.000000 -0.000000 0.000000 0.000000 0.000000 0.000000 0.000000 -0.292593 -2.056437 0.485815 -1.770922 -0.232883 -0.347866 -6.011821 -4.780027 -4.218400 2.720694 5.688660 3.949653 0.000000 0.000000 0.000000 0.000000 0.000000 0.000000 -0.000000 0.000000 0.000000 1.370182 -0.309283 0.049658 -7.035685 -1.854461 -2.864926 4.565453 4.478397 2.662226 0.000000 0.000000 0.000000 0.000000 0.000000 0.000000 -3.405649 0.771254 52.542078 2.495890 -5.500659 1.720447 -2.457022 0.966882 -0.579256 0.000000 0.000000 0.000000 1.220016 -0.107808 53.380737 -0.861869 0.993700 -0.053885 10.590028 13.314230 4.472970 0.000000 0.000000 0.000000
-100.485857 79.790138 292.043296 0.216927 0.033642 -53.413633 -0.102283 -0.194235 53.413396 -0.000000 0.000000 0.000000 -0.000000 0.000000 0.000000 0.000000 0.000000 0.000000 -0.273063 -2.169590 0.500475 -1.668353 -0.046349 -0.374731 -6.374256 -3.654825 -4.002598 3.115154 5.559810 3.935713 0.000000 0.000000 0.000000 0.000000 0.000000 0.000000 -0.980183 -0.269623 -0.381366 6.088520 1.489102 0.815166 -0.813981 -3.748837 -1.467171 1.488796 7.342464 -1.365338 0.000000 0.000000 0.000000 0.000000 0.000000 0.000000 -3.648758 0.932104 52.575910 2.556896 -5.938786 1.852180 -2.055371 1.656011 -0.653266 0.000000 0.000000 0.000000 1.144736 -0.054687 53.475959 -0.854407 0.919007 -0.053002 11.416226 14.805287 5.089495 0.000000 0.000000 0.000000
